<?xml version="1.0" encoding="UTF-8"?>
<svg enable-background="new 0 0 512 512" version="1.1" viewBox="0 0 512 512" xml:space="preserve" xmlns="http://www.w3.org/2000/svg">
    <path d="m349.96 203.61c-5.998-62.967-61.932-112.32-130.04-112.32-72.114 0-130.57 55.305-130.57 123.54 0 6.617 0.551 13.117 1.61 19.445-45.345 5.346-80.561 44.914-80.561 92.914 0 51.639 40.775 93.514 91.075 93.514h333.86c36.605 0 66.26-26.482 66.26-59.162 0-29.539-24.246-54.033-55.943-58.449 0-51.656-40.582-99.615-90.883-99.615-1.613-1e-3 -3.228 0.042-4.81 0.126" fill="#D8EAEF"/><path d="m301.09 203.61c-5.135-62.967-52.466-113.32-110.62-109.16-36.581 2.615-101.12 52.148-101.12 120.39 0 6.617 1.61 19.445 1.61 19.445-42.076 3.783-80.561 44.914-80.561 92.914 0 51.639 34.907 93.514 77.968 93.514h285.81c31.34 0 56.727-26.482 56.727-59.162 0-29.539-20.756-54.033-47.893-58.449 0-51.656-34.742-99.615-77.805-99.615-1.381-1e-3 -2.764 0.042-4.117 0.126-22.807 1.434-43.016 14.605-56.506 34.576" fill="#fff"/><path d="m435.34 420.71c36.605 0 66.26-26.482 66.26-59.162 0-29.539-24.246-54.033-55.943-58.449v0c0-51.656-45.395-99.488-95.693-99.488-1.615 0 1.582-0.084 0 0-26.641 1.434-50.246 14.605-66.006 34.576" fill="none" stroke="#354F65" stroke-linecap="round" stroke-linejoin="round" stroke-miterlimit="10" stroke-width="13"/><path d="m349.96 203.61c-5.998-62.967-61.932-112.32-130.04-112.32-72.114 0-130.57 55.305-130.57 123.54 0 6.617 0.551 13.117 1.61 19.445v0c-45.345 5.346-80.561 44.914-80.561 92.914 0 51.639 40.775 93.514 91.075 93.514h333.86" fill="none" stroke="#354F65" stroke-linecap="round" stroke-linejoin="round" stroke-miterlimit="10" stroke-width="13"/>
</svg>